<svg xmlns="http://www.w3.org/2000/svg" viewBox="0 0 800 500" role="img" aria-labelledby="title desc">
  <title id="title">Ilustrasi kolesterol dan kesehatan pembuluh darah</title>
  <desc id="desc">Ilustrasi medis abstrak berupa pembuluh darah, sel darah, dan molekul lipid.</desc>
  <defs>
    <linearGradient id="bg" x1="0" y1="0" x2="1" y2="1">
      <stop offset="0" stop-color="#eef7f8"/>
      <stop offset="0.56" stop-color="#f7fbfc"/>
      <stop offset="1" stop-color="#e7f0f2"/>
    </linearGradient>
    <linearGradient id="vessel" x1="0" y1="0" x2="1" y2="0">
      <stop offset="0" stop-color="#b3163d"/>
      <stop offset="0.5" stop-color="#de4260"/>
      <stop offset="1" stop-color="#9d1234"/>
    </linearGradient>
    <radialGradient id="cell" cx="35%" cy="35%" r="65%">
      <stop offset="0" stop-color="#ff8b8b"/>
      <stop offset="0.54" stop-color="#df2f4b"/>
      <stop offset="1" stop-color="#99172e"/>
    </radialGradient>
    <filter id="softShadow" x="-20%" y="-20%" width="140%" height="140%">
      <feDropShadow dx="0" dy="12" stdDeviation="16" flood-color="#102a43" flood-opacity="0.16"/>
    </filter>
  </defs>
  <rect width="800" height="500" fill="url(#bg)"/>
  <path d="M-35 355 C105 235 220 408 356 302 C497 192 630 120 835 164 L835 530 L-35 530 Z" fill="#d9eef1"/>
  <path d="M-40 320 C95 190 224 380 362 280 C504 177 635 102 842 152" fill="none" stroke="url(#vessel)" stroke-width="118" stroke-linecap="round" filter="url(#softShadow)"/>
  <path d="M-40 320 C95 190 224 380 362 280 C504 177 635 102 842 152" fill="none" stroke="#ff9cad" stroke-width="34" stroke-linecap="round" opacity="0.28"/>
  <g filter="url(#softShadow)">
    <ellipse cx="162" cy="270" rx="64" ry="43" fill="url(#cell)" transform="rotate(-22 162 270)"/>
    <ellipse cx="348" cy="313" rx="58" ry="38" fill="url(#cell)" transform="rotate(18 348 313)"/>
    <ellipse cx="514" cy="222" rx="68" ry="44" fill="url(#cell)" transform="rotate(-17 514 222)"/>
    <ellipse cx="660" cy="157" rx="53" ry="36" fill="url(#cell)" transform="rotate(12 660 157)"/>
  </g>
  <g fill="#f3b43f" stroke="#cc8a12" stroke-width="5" opacity="0.96">
    <circle cx="252" cy="185" r="23"/>
    <circle cx="302" cy="211" r="16"/>
    <circle cx="438" cy="182" r="20"/>
    <circle cx="588" cy="294" r="18"/>
    <circle cx="641" cy="265" r="13"/>
    <circle cx="184" cy="371" r="15"/>
  </g>
  <g fill="none" stroke="#00606f" stroke-width="7" stroke-linecap="round" opacity="0.9">
    <path d="M103 116 C132 82 173 82 203 116"/>
    <path d="M103 116 C132 150 173 150 203 116"/>
    <path d="M597 390 C625 360 665 360 695 390"/>
    <path d="M597 390 C625 420 665 420 695 390"/>
  </g>
  <g fill="#003144">
    <circle cx="103" cy="116" r="8"/>
    <circle cx="203" cy="116" r="8"/>
    <circle cx="597" cy="390" r="8"/>
    <circle cx="695" cy="390" r="8"/>
  </g>
</svg>
